<?xml version="1.0" encoding="UTF-8" standalone="no"?>
<!-- Created with Inkscape (http://www.inkscape.org/) -->

<svg
   xmlns:dc="http://purl.org/dc/elements/1.1/"
   xmlns:cc="http://creativecommons.org/ns#"
   xmlns:rdf="http://www.w3.org/1999/02/22-rdf-syntax-ns#"
   xmlns:svg="http://www.w3.org/2000/svg"
   xmlns="http://www.w3.org/2000/svg"
   xmlns:sodipodi="http://sodipodi.sourceforge.net/DTD/sodipodi-0.dtd"
   xmlns:inkscape="http://www.inkscape.org/namespaces/inkscape"
   width="67.73333mm"
   height="67.73333mm"
   viewBox="0 0 67.73333 67.73333"
   version="1.1"
   id="svg8"
   sodipodi:docname="favicon.svg"
   inkscape:version="0.92.4 (5da689c313, 2019-01-14)">
  <defs
     id="defs2" />
  <sodipodi:namedview
     id="base"
     pagecolor="#ffffff"
     bordercolor="#666666"
     borderopacity="1.0"
     inkscape:pageopacity="0.0"
     inkscape:pageshadow="2"
     inkscape:zoom="1.6789062"
     inkscape:cx="-390.96728"
     inkscape:cy="166.09438"
     inkscape:document-units="mm"
     inkscape:current-layer="g847"
     showgrid="false"
     inkscape:window-width="3440"
     inkscape:window-height="1377"
     inkscape:window-x="1912"
     inkscape:window-y="-8"
     inkscape:window-maximized="1" />
  <metadata
     id="metadata5">
    <rdf:RDF>
      <cc:Work
         rdf:about="">
        <dc:format>image/svg+xml</dc:format>
        <dc:type
           rdf:resource="http://purl.org/dc/dcmitype/StillImage" />
      </cc:Work>
    </rdf:RDF>
  </metadata>
  <g
     inkscape:label="Layer 1"
     inkscape:groupmode="layer"
     id="layer1"
     transform="translate(-115.43664,-80.735565)">
    <g
       id="g847"
       transform="matrix(0.98356807,0,0,0.98356807,91.449667,-18.730129)">
      <path
         sodipodi:nodetypes="cccscscsccccccc"
         inkscape:connector-curvature="0"
         id="path826-0"
         d="m 59.040251,160.45706 c -8.738999,-2.46036 -22.744561,-6.75472 -23.969303,-7.34941 -1.805887,-0.8769 -3.035986,-2.18942 -4.042185,-4.31307 -0.719332,-1.51819 -0.758715,-1.75192 -0.758715,-4.50251 0,-2.54927 0.08242,-3.14116 0.679245,-4.87936 0.823465,-2.39816 1.127483,-2.8259 5.381568,-7.57161 15.533337,-17.32846 18.132352,-20.1487 18.841067,-20.44482 0.883078,-0.36897 0.890453,-0.36762 14.506039,2.66195 12.301851,2.73725 13.29883,2.99794 13.895883,3.63348 -0.997315,5.25923 -1.051522,10.92892 0.13107,13.92361 l -0.01983,3.76102 -2.768034,3.36991 c -4.249353,5.17331 -16.770425,20.18121 -17.681821,21.19363 -0.445642,0.49503 -1.082243,0.95175 -1.41467,1.01492 -0.332427,0.0632 -1.583569,-0.16081 -2.780314,-0.49774 z"
         style="fill:#ffffff;stroke-width:0.24176639" />
      <path
         inkscape:connector-curvature="0"
         id="path826"
         d="m 59.233985,162.75598 c -9.56375,-2.69256 -24.8911,-7.3922 -26.23143,-8.04302 -1.97632,-0.95965 -3.32251,-2.39605 -4.42367,-4.72012 -0.78722,-1.66147 -0.83032,-1.91726 -0.83032,-4.92744 0,-2.78986 0.0902,-3.43761 0.74335,-5.33985 0.90118,-2.62449 1.23389,-3.0926 5.88946,-8.28619 16.99931,-18.96385 19.84361,-22.05025 20.61921,-22.37432 0.96642,-0.40379 0.97449,-0.40231 15.87506,2.91318 13.46285,2.99558 14.55392,3.28087 15.20732,3.97639 0.65957,0.70208 0.77982,2.03061 0.24467,2.70319 -0.79124,0.99443 -14.68798,17.17423 -19.38622,22.57114 -2.72367,3.1287 -5.27441,5.90063 -5.66832,6.15984 -0.50055,0.32938 -0.98486,0.42352 -1.60847,0.31266 -0.49075,-0.0872 -5.86414,-1.56982 -11.94086,-3.29462 -6.07672,-1.7248 -11.56879,-3.20815 -12.2046,-3.29634 -2.39031,-0.33155 -3.50279,1.12071 -3.33363,4.3518 0.11408,2.17903 0.5178,3.18266 1.77452,4.41133 0.67368,0.65865 1.78554,1.10319 6.03837,2.41425 6.90084,2.1274 20.53563,6.139 20.86544,6.139 0.24778,0 17.49956,-20.62811 19.69142,-23.5452 1.02743,-1.36738 1.03604,-1.39877 1.0418,-3.7996 0.009,-3.5657 0.8778,-5.19895 2.76694,-5.19895 0.37999,0 0.95935,0.26847 1.28749,0.5966 0.57006,0.57006 0.59563,0.77968 0.57489,4.71256 l -0.0217,4.11597 -3.02928,3.68795 c -4.65038,5.66155 -18.35314,22.08583 -19.35055,23.1938 -0.4877,0.54175 -1.18438,1.04157 -1.54818,1.11071 -0.3638,0.0691 -1.73302,-0.17599 -3.04271,-0.54472 z m 13.16302,-37.94594 c 1.38024,-1.47724 1.57122,-2.23945 0.66146,-2.6399 -1.21077,-0.53294 -17.01501,-4.22453 -18.08585,-4.22453 -1.00919,0 -1.2315,0.13349 -2.45896,1.47653 -1.47907,1.61833 -1.53096,1.74376 -0.95845,2.31627 0.31176,0.31176 10.89955,3.06636 16.8069,4.37262 1.9208,0.42474 2.6388,0.19323 4.0349,-1.30099 z"
         style="fill:#006680;stroke-width:0.26458332" />
    </g>
  </g>
</svg>
